<svg xmlns="http://www.w3.org/2000/svg" width="210mm" height="252mm" viewBox="0 0 210 252">
<rect width="210" height="252" fill="#ffffff"/>
<text x="4.00" y="8.00" font-size="3.40" font-family="Helvetica, Arial, sans-serif" font-weight="bold" fill="#1a1a2e" text-anchor="start" dy="0.35em">TOP HALF, plan from below (turned over about its long axis, so +x runs to the LEFT), 2:1</text>
<text x="4.00" y="13.50" font-size="2.10" font-family="Helvetica, Arial, sans-serif" font-weight="normal" fill="#1a1a2e" text-anchor="start" dy="0.35em">Dimensions stay in the PCB frame. The USB-C wall is on the right, the antenna wall at the bottom; hidden features dashed.</text>
<rect x="53.00" y="64.60" width="72.40" height="133.40" rx="4.00" fill="none" stroke="#1a1a2e" stroke-width="0.35"/>
<rect x="55.50" y="67.10" width="67.40" height="127.80" rx="0.00" fill="none" stroke="#1a1a2e" stroke-width="0.35"/>
<rect x="57.40" y="69.00" width="63.60" height="124.00" rx="0.00" fill="none" stroke="#1a1a2e" stroke-width="0.18"/>
<rect x="122.90" y="125.00" width="0.84" height="18.00" rx="0.00" fill="none" stroke="#555566" stroke-width="0.25" stroke-dasharray="1.6 0.8"/>
<rect x="54.66" y="125.00" width="0.84" height="18.00" rx="0.00" fill="none" stroke="#555566" stroke-width="0.25" stroke-dasharray="1.6 0.8"/>
<rect x="122.90" y="161.00" width="0.84" height="18.00" rx="0.00" fill="none" stroke="#555566" stroke-width="0.25" stroke-dasharray="1.6 0.8"/>
<rect x="54.66" y="161.00" width="0.84" height="18.00" rx="0.00" fill="none" stroke="#555566" stroke-width="0.25" stroke-dasharray="1.6 0.8"/>
<circle cx="111.60" cy="74.80" r="4.40" fill="none" stroke="#1a1a2e" stroke-width="0.35"/>
<circle cx="111.60" cy="74.80" r="2.60" fill="none" stroke="#1a1a2e" stroke-width="0.35"/>
<line x1="105.20" y1="74.80" x2="118.00" y2="74.80" stroke="#555566" stroke-width="0.18" stroke-linecap="butt" stroke-dasharray="5 0.9 0.9 0.9"/>
<line x1="111.60" y1="68.40" x2="111.60" y2="81.20" stroke="#555566" stroke-width="0.18" stroke-linecap="butt" stroke-dasharray="5 0.9 0.9 0.9"/>
<circle cx="63.20" cy="74.80" r="4.40" fill="none" stroke="#1a1a2e" stroke-width="0.35"/>
<circle cx="63.20" cy="74.80" r="2.60" fill="none" stroke="#1a1a2e" stroke-width="0.35"/>
<line x1="56.80" y1="74.80" x2="69.60" y2="74.80" stroke="#555566" stroke-width="0.18" stroke-linecap="butt" stroke-dasharray="5 0.9 0.9 0.9"/>
<line x1="63.20" y1="68.40" x2="63.20" y2="81.20" stroke="#555566" stroke-width="0.18" stroke-linecap="butt" stroke-dasharray="5 0.9 0.9 0.9"/>
<circle cx="112.00" cy="143.20" r="3.00" fill="none" stroke="#1a1a2e" stroke-width="0.35"/>
<line x1="107.00" y1="143.20" x2="117.00" y2="143.20" stroke="#555566" stroke-width="0.18" stroke-linecap="butt" stroke-dasharray="5 0.9 0.9 0.9"/>
<line x1="112.00" y1="138.20" x2="112.00" y2="148.20" stroke="#555566" stroke-width="0.18" stroke-linecap="butt" stroke-dasharray="5 0.9 0.9 0.9"/>
<circle cx="63.20" cy="141.20" r="4.40" fill="none" stroke="#1a1a2e" stroke-width="0.35"/>
<circle cx="63.20" cy="141.20" r="2.60" fill="none" stroke="#1a1a2e" stroke-width="0.35"/>
<line x1="56.80" y1="141.20" x2="69.60" y2="141.20" stroke="#555566" stroke-width="0.18" stroke-linecap="butt" stroke-dasharray="5 0.9 0.9 0.9"/>
<line x1="63.20" y1="134.80" x2="63.20" y2="147.60" stroke="#555566" stroke-width="0.18" stroke-linecap="butt" stroke-dasharray="5 0.9 0.9 0.9"/>
<rect x="121.00" y="86.20" width="4.40" height="26.00" rx="0.00" fill="none" stroke="#555566" stroke-width="0.25" stroke-dasharray="1.6 0.8"/>
<line x1="129.40" y1="99.20" x2="117.00" y2="99.20" stroke="#555566" stroke-width="0.18" stroke-linecap="butt" stroke-dasharray="5 0.9 0.9 0.9"/>
<rect x="84.46" y="193.00" width="13.20" height="5.00" rx="0.00" fill="none" stroke="#555566" stroke-width="0.25" stroke-dasharray="1.6 0.8"/>
<rect x="83.66" y="193.00" width="14.80" height="1.20" rx="0.00" fill="none" stroke="#555566" stroke-width="0.25" stroke-dasharray="1.6 0.8"/>
<line x1="91.06" y1="187.00" x2="91.06" y2="204.00" stroke="#555566" stroke-width="0.18" stroke-linecap="butt" stroke-dasharray="5 0.9 0.9 0.9"/>
<rect x="77.40" y="64.60" width="20.00" height="2.50" rx="0.00" fill="none" stroke="#1a1a2e" stroke-width="0.18"/>
<rect x="58.40" y="70.00" width="58.00" height="76.00" rx="0.00" fill="none" stroke="#2e7d32" stroke-width="0.22" stroke-dasharray="3 0.8 0.6 0.8"/>
<circle cx="111.60" cy="74.80" r="2.20" fill="none" stroke="#2e7d32" stroke-width="0.22" stroke-dasharray="3 0.8 0.6 0.8"/>
<circle cx="63.20" cy="74.80" r="2.20" fill="none" stroke="#2e7d32" stroke-width="0.22" stroke-dasharray="3 0.8 0.6 0.8"/>
<circle cx="111.60" cy="141.20" r="2.20" fill="none" stroke="#2e7d32" stroke-width="0.22" stroke-dasharray="3 0.8 0.6 0.8"/>
<circle cx="63.20" cy="141.20" r="2.20" fill="none" stroke="#2e7d32" stroke-width="0.22" stroke-dasharray="3 0.8 0.6 0.8"/>
<text x="87.40" y="122.00" font-size="2.00" font-family="Helvetica, Arial, sans-serif" font-weight="normal" fill="#2e7d32" text-anchor="middle" dy="0.35em" stroke="#ffffff" stroke-width="0.56" paint-order="stroke" stroke-linejoin="round">PCB (reference)</text>
<line x1="116.40" y1="70.00" x2="112.40" y2="81.00" stroke="#2e7d32" stroke-width="0.18" stroke-linecap="butt"/>
<polygon points="116.40,70.00 116.05,72.00 115.39,71.76" fill="#2e7d32"/>
<line x1="112.40" y1="81.00" x2="109.40" y2="81.00" stroke="#2e7d32" stroke-width="0.18" stroke-linecap="butt"/>
<text x="108.60" y="81.00" font-size="2.00" font-family="Helvetica, Arial, sans-serif" font-weight="normal" fill="#2e7d32" text-anchor="end" dy="0.35em" stroke="#ffffff" stroke-width="0.56" paint-order="stroke" stroke-linejoin="round">PCB origin (0, 0)</text>
<line x1="125.40" y1="63.80" x2="125.40" y2="19.40" stroke="#1f4e9c" stroke-width="0.18" stroke-linecap="butt"/>
<line x1="53.00" y1="63.80" x2="53.00" y2="19.40" stroke="#1f4e9c" stroke-width="0.18" stroke-linecap="butt"/>
<line x1="125.40" y1="20.60" x2="53.00" y2="20.60" stroke="#1f4e9c" stroke-width="0.18" stroke-linecap="butt"/>
<polygon points="53.00,20.60 55.00,20.25 55.00,20.95" fill="#1f4e9c"/>
<polygon points="125.40,20.60 123.40,20.95 123.40,20.25" fill="#1f4e9c"/>
<text x="89.20" y="19.40" font-size="2.60" font-family="Helvetica, Arial, sans-serif" font-weight="normal" fill="#1f4e9c" text-anchor="middle" dy="0.35em" stroke="#ffffff" stroke-width="0.73" paint-order="stroke" stroke-linejoin="round">36.20</text>
<line x1="125.40" y1="63.80" x2="125.40" y2="29.40" stroke="#1f4e9c" stroke-width="0.18" stroke-linecap="butt"/>
<line x1="87.40" y1="63.80" x2="87.40" y2="29.40" stroke="#1f4e9c" stroke-width="0.18" stroke-linecap="butt"/>
<line x1="125.40" y1="30.60" x2="87.40" y2="30.60" stroke="#1f4e9c" stroke-width="0.18" stroke-linecap="butt"/>
<polygon points="87.40,30.60 89.40,30.25 89.40,30.95" fill="#1f4e9c"/>
<polygon points="125.40,30.60 123.40,30.95 123.40,30.25" fill="#1f4e9c"/>
<text x="106.40" y="29.40" font-size="2.60" font-family="Helvetica, Arial, sans-serif" font-weight="normal" fill="#1f4e9c" text-anchor="middle" dy="0.35em" stroke="#ffffff" stroke-width="0.73" paint-order="stroke" stroke-linejoin="round">19.00 notch centre</text>
<line x1="122.90" y1="68.20" x2="122.90" y2="39.40" stroke="#1f4e9c" stroke-width="0.18" stroke-linecap="butt"/>
<line x1="55.50" y1="68.20" x2="55.50" y2="39.40" stroke="#1f4e9c" stroke-width="0.18" stroke-linecap="butt"/>
<line x1="122.90" y1="40.60" x2="55.50" y2="40.60" stroke="#1f4e9c" stroke-width="0.18" stroke-linecap="butt"/>
<polygon points="55.50,40.60 57.50,40.25 57.50,40.95" fill="#1f4e9c"/>
<polygon points="122.90,40.60 120.90,40.95 120.90,40.25" fill="#1f4e9c"/>
<text x="89.20" y="39.40" font-size="2.60" font-family="Helvetica, Arial, sans-serif" font-weight="normal" fill="#1f4e9c" text-anchor="middle" dy="0.35em" stroke="#ffffff" stroke-width="0.73" paint-order="stroke" stroke-linejoin="round">33.70 between the skirt faces</text>
<line x1="55.50" y1="68.20" x2="55.50" y2="39.40" stroke="#1f4e9c" stroke-width="0.18" stroke-linecap="butt"/>
<line x1="53.00" y1="63.80" x2="53.00" y2="39.40" stroke="#1f4e9c" stroke-width="0.18" stroke-linecap="butt"/>
<line x1="55.50" y1="40.60" x2="53.00" y2="40.60" stroke="#1f4e9c" stroke-width="0.18" stroke-linecap="butt"/>
<polygon points="53.00,40.60 51.00,40.95 51.00,40.25" fill="#1f4e9c"/>
<polygon points="55.50,40.60 57.50,40.25 57.50,40.95" fill="#1f4e9c"/>
<line x1="48.50" y1="40.60" x2="53.00" y2="40.60" stroke="#1f4e9c" stroke-width="0.18" stroke-linecap="butt"/>
<line x1="55.50" y1="40.60" x2="60.00" y2="40.60" stroke="#1f4e9c" stroke-width="0.18" stroke-linecap="butt"/>
<text x="50.00" y="39.40" font-size="2.60" font-family="Helvetica, Arial, sans-serif" font-weight="normal" fill="#1f4e9c" text-anchor="end" dy="0.35em" stroke="#ffffff" stroke-width="0.73" paint-order="stroke" stroke-linejoin="round">1.25 skirt</text>
<line x1="125.40" y1="63.80" x2="125.40" y2="49.40" stroke="#1f4e9c" stroke-width="0.18" stroke-linecap="butt"/>
<line x1="111.60" y1="74.00" x2="111.60" y2="49.40" stroke="#1f4e9c" stroke-width="0.18" stroke-linecap="butt"/>
<line x1="125.40" y1="50.60" x2="111.60" y2="50.60" stroke="#1f4e9c" stroke-width="0.18" stroke-linecap="butt"/>
<polygon points="111.60,50.60 113.60,50.25 113.60,50.95" fill="#1f4e9c"/>
<polygon points="125.40,50.60 123.40,50.95 123.40,50.25" fill="#1f4e9c"/>
<text x="118.50" y="49.40" font-size="2.60" font-family="Helvetica, Arial, sans-serif" font-weight="normal" fill="#1f4e9c" text-anchor="middle" dy="0.35em" stroke="#ffffff" stroke-width="0.73" paint-order="stroke" stroke-linejoin="round">6.90</text>
<line x1="111.60" y1="74.00" x2="111.60" y2="49.40" stroke="#1f4e9c" stroke-width="0.18" stroke-linecap="butt"/>
<line x1="63.20" y1="74.00" x2="63.20" y2="49.40" stroke="#1f4e9c" stroke-width="0.18" stroke-linecap="butt"/>
<line x1="111.60" y1="50.60" x2="63.20" y2="50.60" stroke="#1f4e9c" stroke-width="0.18" stroke-linecap="butt"/>
<polygon points="63.20,50.60 65.20,50.25 65.20,50.95" fill="#1f4e9c"/>
<polygon points="111.60,50.60 109.60,50.95 109.60,50.25" fill="#1f4e9c"/>
<text x="87.40" y="49.40" font-size="2.60" font-family="Helvetica, Arial, sans-serif" font-weight="normal" fill="#1f4e9c" text-anchor="middle" dy="0.35em" stroke="#ffffff" stroke-width="0.73" paint-order="stroke" stroke-linejoin="round">24.20</text>
<line x1="63.20" y1="74.00" x2="63.20" y2="49.40" stroke="#1f4e9c" stroke-width="0.18" stroke-linecap="butt"/>
<line x1="53.00" y1="63.80" x2="53.00" y2="49.40" stroke="#1f4e9c" stroke-width="0.18" stroke-linecap="butt"/>
<line x1="63.20" y1="50.60" x2="53.00" y2="50.60" stroke="#1f4e9c" stroke-width="0.18" stroke-linecap="butt"/>
<polygon points="53.00,50.60 51.00,50.95 51.00,50.25" fill="#1f4e9c"/>
<polygon points="63.20,50.60 65.20,50.25 65.20,50.95" fill="#1f4e9c"/>
<line x1="48.50" y1="50.60" x2="53.00" y2="50.60" stroke="#1f4e9c" stroke-width="0.18" stroke-linecap="butt"/>
<line x1="63.20" y1="50.60" x2="67.70" y2="50.60" stroke="#1f4e9c" stroke-width="0.18" stroke-linecap="butt"/>
<text x="50.00" y="49.40" font-size="2.60" font-family="Helvetica, Arial, sans-serif" font-weight="normal" fill="#1f4e9c" text-anchor="end" dy="0.35em" stroke="#ffffff" stroke-width="0.73" paint-order="stroke" stroke-linejoin="round">5.10</text>
<line x1="97.40" y1="67.90" x2="97.40" y2="101.20" stroke="#1f4e9c" stroke-width="0.18" stroke-linecap="butt"/>
<line x1="77.40" y1="67.90" x2="77.40" y2="101.20" stroke="#1f4e9c" stroke-width="0.18" stroke-linecap="butt"/>
<line x1="97.40" y1="100.00" x2="77.40" y2="100.00" stroke="#1f4e9c" stroke-width="0.18" stroke-linecap="butt"/>
<polygon points="77.40,100.00 79.40,99.65 79.40,100.35" fill="#1f4e9c"/>
<polygon points="97.40,100.00 95.40,100.35 95.40,99.65" fill="#1f4e9c"/>
<text x="87.40" y="98.80" font-size="2.60" font-family="Helvetica, Arial, sans-serif" font-weight="normal" fill="#1f4e9c" text-anchor="middle" dy="0.35em" stroke="#ffffff" stroke-width="0.73" paint-order="stroke" stroke-linejoin="round">10.00 notch, 1.20 deep</text>
<line x1="126.20" y1="64.60" x2="151.60" y2="64.60" stroke="#1f4e9c" stroke-width="0.18" stroke-linecap="butt"/>
<line x1="126.20" y1="198.00" x2="151.60" y2="198.00" stroke="#1f4e9c" stroke-width="0.18" stroke-linecap="butt"/>
<line x1="150.40" y1="64.60" x2="150.40" y2="198.00" stroke="#1f4e9c" stroke-width="0.18" stroke-linecap="butt"/>
<polygon points="150.40,64.60 150.75,66.60 150.05,66.60" fill="#1f4e9c"/>
<polygon points="150.40,198.00 150.05,196.00 150.75,196.00" fill="#1f4e9c"/>
<text x="149.20" y="131.30" font-size="2.60" font-family="Helvetica, Arial, sans-serif" font-weight="normal" fill="#1f4e9c" text-anchor="middle" dy="0.35em" transform="rotate(-90 149.20 131.30)" stroke="#ffffff" stroke-width="0.73" paint-order="stroke" stroke-linejoin="round">66.70</text>
<line x1="126.20" y1="64.60" x2="140.60" y2="64.60" stroke="#1f4e9c" stroke-width="0.18" stroke-linecap="butt"/>
<line x1="126.20" y1="99.20" x2="140.60" y2="99.20" stroke="#1f4e9c" stroke-width="0.18" stroke-linecap="butt"/>
<line x1="139.40" y1="64.60" x2="139.40" y2="99.20" stroke="#1f4e9c" stroke-width="0.18" stroke-linecap="butt"/>
<polygon points="139.40,64.60 139.75,66.60 139.05,66.60" fill="#1f4e9c"/>
<polygon points="139.40,99.20 139.05,97.20 139.75,97.20" fill="#1f4e9c"/>
<text x="138.20" y="81.90" font-size="2.60" font-family="Helvetica, Arial, sans-serif" font-weight="normal" fill="#1f4e9c" text-anchor="middle" dy="0.35em" transform="rotate(-90 138.20 81.90)" stroke="#ffffff" stroke-width="0.73" paint-order="stroke" stroke-linejoin="round">17.30 window centre</text>
<line x1="126.20" y1="86.20" x2="131.60" y2="86.20" stroke="#1f4e9c" stroke-width="0.18" stroke-linecap="butt"/>
<line x1="126.20" y1="112.20" x2="131.60" y2="112.20" stroke="#1f4e9c" stroke-width="0.18" stroke-linecap="butt"/>
<line x1="130.40" y1="86.20" x2="130.40" y2="112.20" stroke="#1f4e9c" stroke-width="0.18" stroke-linecap="butt"/>
<polygon points="130.40,86.20 130.75,88.20 130.05,88.20" fill="#1f4e9c"/>
<polygon points="130.40,112.20 130.05,110.20 130.75,110.20" fill="#1f4e9c"/>
<text x="129.20" y="99.20" font-size="2.60" font-family="Helvetica, Arial, sans-serif" font-weight="normal" fill="#1f4e9c" text-anchor="middle" dy="0.35em" transform="rotate(-90 129.20 99.20)" stroke="#ffffff" stroke-width="0.73" paint-order="stroke" stroke-linejoin="round">13.00</text>
<line x1="52.20" y1="64.60" x2="37.80" y2="64.60" stroke="#1f4e9c" stroke-width="0.18" stroke-linecap="butt"/>
<line x1="62.40" y1="74.80" x2="37.80" y2="74.80" stroke="#1f4e9c" stroke-width="0.18" stroke-linecap="butt"/>
<line x1="39.00" y1="64.60" x2="39.00" y2="74.80" stroke="#1f4e9c" stroke-width="0.18" stroke-linecap="butt"/>
<polygon points="39.00,64.60 39.35,66.60 38.65,66.60" fill="#1f4e9c"/>
<polygon points="39.00,74.80 38.65,72.80 39.35,72.80" fill="#1f4e9c"/>
<text x="37.80" y="69.70" font-size="2.60" font-family="Helvetica, Arial, sans-serif" font-weight="normal" fill="#1f4e9c" text-anchor="middle" dy="0.35em" transform="rotate(-90 37.80 69.70)" stroke="#ffffff" stroke-width="0.73" paint-order="stroke" stroke-linejoin="round">5.10</text>
<line x1="62.40" y1="74.80" x2="37.80" y2="74.80" stroke="#1f4e9c" stroke-width="0.18" stroke-linecap="butt"/>
<line x1="62.40" y1="141.20" x2="37.80" y2="141.20" stroke="#1f4e9c" stroke-width="0.18" stroke-linecap="butt"/>
<line x1="39.00" y1="74.80" x2="39.00" y2="141.20" stroke="#1f4e9c" stroke-width="0.18" stroke-linecap="butt"/>
<polygon points="39.00,74.80 39.35,76.80 38.65,76.80" fill="#1f4e9c"/>
<polygon points="39.00,141.20 38.65,139.20 39.35,139.20" fill="#1f4e9c"/>
<text x="37.80" y="108.00" font-size="2.60" font-family="Helvetica, Arial, sans-serif" font-weight="normal" fill="#1f4e9c" text-anchor="middle" dy="0.35em" transform="rotate(-90 37.80 108.00)" stroke="#ffffff" stroke-width="0.73" paint-order="stroke" stroke-linejoin="round">33.20</text>
<line x1="62.40" y1="141.20" x2="37.80" y2="141.20" stroke="#1f4e9c" stroke-width="0.18" stroke-linecap="butt"/>
<line x1="52.20" y1="198.00" x2="37.80" y2="198.00" stroke="#1f4e9c" stroke-width="0.18" stroke-linecap="butt"/>
<line x1="39.00" y1="141.20" x2="39.00" y2="198.00" stroke="#1f4e9c" stroke-width="0.18" stroke-linecap="butt"/>
<polygon points="39.00,141.20 38.65,139.20 39.35,139.20" fill="#1f4e9c"/>
<polygon points="39.00,198.00 39.35,200.00 38.65,200.00" fill="#1f4e9c"/>
<line x1="39.00" y1="136.70" x2="39.00" y2="141.20" stroke="#1f4e9c" stroke-width="0.18" stroke-linecap="butt"/>
<line x1="39.00" y1="198.00" x2="39.00" y2="202.50" stroke="#1f4e9c" stroke-width="0.18" stroke-linecap="butt"/>
<text x="37.80" y="201.00" font-size="2.60" font-family="Helvetica, Arial, sans-serif" font-weight="normal" fill="#1f4e9c" text-anchor="end" dy="0.35em" transform="rotate(-90 37.80 201.00)" stroke="#ffffff" stroke-width="0.73" paint-order="stroke" stroke-linejoin="round">28.40</text>
<line x1="52.20" y1="64.60" x2="26.80" y2="64.60" stroke="#1f4e9c" stroke-width="0.18" stroke-linecap="butt"/>
<line x1="52.20" y1="134.00" x2="26.80" y2="134.00" stroke="#1f4e9c" stroke-width="0.18" stroke-linecap="butt"/>
<line x1="28.00" y1="64.60" x2="28.00" y2="134.00" stroke="#1f4e9c" stroke-width="0.18" stroke-linecap="butt"/>
<polygon points="28.00,64.60 28.35,66.60 27.65,66.60" fill="#1f4e9c"/>
<polygon points="28.00,134.00 27.65,132.00 28.35,132.00" fill="#1f4e9c"/>
<text x="26.80" y="99.30" font-size="2.60" font-family="Helvetica, Arial, sans-serif" font-weight="normal" fill="#1f4e9c" text-anchor="middle" dy="0.35em" transform="rotate(-90 26.80 99.30)" stroke="#ffffff" stroke-width="0.73" paint-order="stroke" stroke-linejoin="round">34.70 groove centre</text>
<line x1="52.20" y1="134.00" x2="26.80" y2="134.00" stroke="#1f4e9c" stroke-width="0.18" stroke-linecap="butt"/>
<line x1="52.20" y1="170.00" x2="26.80" y2="170.00" stroke="#1f4e9c" stroke-width="0.18" stroke-linecap="butt"/>
<line x1="28.00" y1="134.00" x2="28.00" y2="170.00" stroke="#1f4e9c" stroke-width="0.18" stroke-linecap="butt"/>
<polygon points="28.00,134.00 28.35,136.00 27.65,136.00" fill="#1f4e9c"/>
<polygon points="28.00,170.00 27.65,168.00 28.35,168.00" fill="#1f4e9c"/>
<text x="26.80" y="152.00" font-size="2.60" font-family="Helvetica, Arial, sans-serif" font-weight="normal" fill="#1f4e9c" text-anchor="middle" dy="0.35em" transform="rotate(-90 26.80 152.00)" stroke="#ffffff" stroke-width="0.73" paint-order="stroke" stroke-linejoin="round">18.00</text>
<line x1="54.70" y1="161.00" x2="46.80" y2="161.00" stroke="#1f4e9c" stroke-width="0.18" stroke-linecap="butt"/>
<line x1="54.70" y1="179.00" x2="46.80" y2="179.00" stroke="#1f4e9c" stroke-width="0.18" stroke-linecap="butt"/>
<line x1="48.00" y1="161.00" x2="48.00" y2="179.00" stroke="#1f4e9c" stroke-width="0.18" stroke-linecap="butt"/>
<polygon points="48.00,161.00 48.35,163.00 47.65,163.00" fill="#1f4e9c"/>
<polygon points="48.00,179.00 47.65,177.00 48.35,177.00" fill="#1f4e9c"/>
<text x="46.80" y="170.00" font-size="2.60" font-family="Helvetica, Arial, sans-serif" font-weight="normal" fill="#1f4e9c" text-anchor="middle" dy="0.35em" transform="rotate(-90 46.80 170.00)" stroke="#ffffff" stroke-width="0.73" paint-order="stroke" stroke-linejoin="round">9.00 groove</text>
<line x1="125.40" y1="198.80" x2="125.40" y2="213.20" stroke="#1f4e9c" stroke-width="0.18" stroke-linecap="butt"/>
<line x1="91.06" y1="198.80" x2="91.06" y2="213.20" stroke="#1f4e9c" stroke-width="0.18" stroke-linecap="butt"/>
<line x1="125.40" y1="212.00" x2="91.06" y2="212.00" stroke="#1f4e9c" stroke-width="0.18" stroke-linecap="butt"/>
<polygon points="91.06,212.00 93.06,211.65 93.06,212.35" fill="#1f4e9c"/>
<polygon points="125.40,212.00 123.40,212.35 123.40,211.65" fill="#1f4e9c"/>
<text x="108.23" y="210.80" font-size="2.60" font-family="Helvetica, Arial, sans-serif" font-weight="normal" fill="#1f4e9c" text-anchor="middle" dy="0.35em" stroke="#ffffff" stroke-width="0.73" paint-order="stroke" stroke-linejoin="round">17.17 antenna axis</text>
<line x1="91.06" y1="198.80" x2="91.06" y2="213.20" stroke="#1f4e9c" stroke-width="0.18" stroke-linecap="butt"/>
<line x1="53.00" y1="198.80" x2="53.00" y2="213.20" stroke="#1f4e9c" stroke-width="0.18" stroke-linecap="butt"/>
<line x1="91.06" y1="212.00" x2="53.00" y2="212.00" stroke="#1f4e9c" stroke-width="0.18" stroke-linecap="butt"/>
<polygon points="53.00,212.00 55.00,211.65 55.00,212.35" fill="#1f4e9c"/>
<polygon points="91.06,212.00 89.06,212.35 89.06,211.65" fill="#1f4e9c"/>
<text x="72.03" y="210.80" font-size="2.60" font-family="Helvetica, Arial, sans-serif" font-weight="normal" fill="#1f4e9c" text-anchor="middle" dy="0.35em" stroke="#ffffff" stroke-width="0.73" paint-order="stroke" stroke-linejoin="round">19.03</text>
<line x1="66.20" y1="78.00" x2="74.20" y2="90.00" stroke="#1f4e9c" stroke-width="0.18" stroke-linecap="butt"/>
<polygon points="66.20,78.00 67.60,79.47 67.02,79.86" fill="#1f4e9c"/>
<line x1="74.20" y1="90.00" x2="77.20" y2="90.00" stroke="#1f4e9c" stroke-width="0.18" stroke-linecap="butt"/>
<text x="78.00" y="90.00" font-size="2.60" font-family="Helvetica, Arial, sans-serif" font-weight="normal" fill="#1f4e9c" text-anchor="start" dy="0.35em" stroke="#ffffff" stroke-width="0.73" paint-order="stroke" stroke-linejoin="round">boss Ø4.40, bore Ø2.60 (3 places)</text>
<line x1="114.10" y1="145.30" x2="104.10" y2="154.30" stroke="#1f4e9c" stroke-width="0.18" stroke-linecap="butt"/>
<polygon points="114.10,145.30 112.85,146.90 112.38,146.38" fill="#1f4e9c"/>
<line x1="104.10" y1="154.30" x2="101.10" y2="154.30" stroke="#1f4e9c" stroke-width="0.18" stroke-linecap="butt"/>
<text x="100.30" y="154.30" font-size="2.60" font-family="Helvetica, Arial, sans-serif" font-weight="normal" fill="#1f4e9c" text-anchor="end" dy="0.35em" stroke="#ffffff" stroke-width="0.73" paint-order="stroke" stroke-linejoin="round">solid boss Ø3.00 at (2.2, 36.6):</text>
<text x="100.30" y="157.40" font-size="2.60" font-family="Helvetica, Arial, sans-serif" font-weight="normal" fill="#1f4e9c" text-anchor="end" dy="0.35em" stroke="#ffffff" stroke-width="0.73" paint-order="stroke" stroke-linejoin="round">6.70 / 39.30 from the outside faces</text>
<line x1="126.60" y1="65.80" x2="118.60" y2="60.80" stroke="#1f4e9c" stroke-width="0.18" stroke-linecap="butt"/>
<polygon points="126.60,65.80 124.72,65.04 125.09,64.44" fill="#1f4e9c"/>
<line x1="118.60" y1="60.80" x2="115.60" y2="60.80" stroke="#1f4e9c" stroke-width="0.18" stroke-linecap="butt"/>
<text x="114.80" y="60.80" font-size="2.60" font-family="Helvetica, Arial, sans-serif" font-weight="normal" fill="#1f4e9c" text-anchor="end" dy="0.35em" stroke="#ffffff" stroke-width="0.73" paint-order="stroke" stroke-linejoin="round">R2.00 (4 corners)</text>
<line x1="122.90" y1="182.00" x2="114.90" y2="188.00" stroke="#1f4e9c" stroke-width="0.18" stroke-linecap="butt"/>
<polygon points="122.90,182.00 121.51,183.48 121.09,182.92" fill="#1f4e9c"/>
<line x1="114.90" y1="188.00" x2="111.90" y2="188.00" stroke="#1f4e9c" stroke-width="0.18" stroke-linecap="butt"/>
<text x="111.10" y="188.00" font-size="2.60" font-family="Helvetica, Arial, sans-serif" font-weight="normal" fill="#1f4e9c" text-anchor="end" dy="0.35em" stroke="#ffffff" stroke-width="0.73" paint-order="stroke" stroke-linejoin="round">rebate 0.95 deep, 6.30 tall</text>
<line x1="54.66" y1="164.00" x2="62.66" y2="172.00" stroke="#1f4e9c" stroke-width="0.18" stroke-linecap="butt"/>
<polygon points="54.66,164.00 56.32,165.17 55.83,165.66" fill="#1f4e9c"/>
<line x1="62.66" y1="172.00" x2="65.66" y2="172.00" stroke="#1f4e9c" stroke-width="0.18" stroke-linecap="butt"/>
<text x="66.46" y="172.00" font-size="2.60" font-family="Helvetica, Arial, sans-serif" font-weight="normal" fill="#1f4e9c" text-anchor="start" dy="0.35em" stroke="#ffffff" stroke-width="0.73" paint-order="stroke" stroke-linejoin="round">groove R0.42, centre 5.30 above the seam</text>
<line x1="121.00" y1="95.20" x2="113.00" y2="107.20" stroke="#1f4e9c" stroke-width="0.18" stroke-linecap="butt"/>
<polygon points="121.00,95.20 120.18,97.06 119.60,96.67" fill="#1f4e9c"/>
<line x1="113.00" y1="107.20" x2="110.00" y2="107.20" stroke="#1f4e9c" stroke-width="0.18" stroke-linecap="butt"/>
<text x="109.20" y="107.20" font-size="2.60" font-family="Helvetica, Arial, sans-serif" font-weight="normal" fill="#1f4e9c" text-anchor="end" dy="0.35em" stroke="#ffffff" stroke-width="0.73" paint-order="stroke" stroke-linejoin="round">USB-C window 13.00 x 7.50, hidden</text>
<line x1="84.46" y1="196.40" x2="74.46" y2="201.40" stroke="#1f4e9c" stroke-width="0.18" stroke-linecap="butt"/>
<polygon points="84.46,196.40 82.83,197.61 82.51,196.98" fill="#1f4e9c"/>
<line x1="74.46" y1="201.40" x2="71.46" y2="201.40" stroke="#1f4e9c" stroke-width="0.18" stroke-linecap="butt"/>
<text x="70.66" y="201.40" font-size="2.60" font-family="Helvetica, Arial, sans-serif" font-weight="normal" fill="#1f4e9c" text-anchor="end" dy="0.35em" stroke="#ffffff" stroke-width="0.73" paint-order="stroke" stroke-linejoin="round">Ø6.60 hole (hidden)</text>
<line x1="98.46" y1="194.20" x2="108.46" y2="197.20" stroke="#1f4e9c" stroke-width="0.18" stroke-linecap="butt"/>
<polygon points="98.46,194.20 100.48,194.44 100.28,195.11" fill="#1f4e9c"/>
<line x1="108.46" y1="197.20" x2="111.46" y2="197.20" stroke="#1f4e9c" stroke-width="0.18" stroke-linecap="butt"/>
<text x="112.26" y="197.20" font-size="2.60" font-family="Helvetica, Arial, sans-serif" font-weight="normal" fill="#1f4e9c" text-anchor="start" dy="0.35em" stroke="#ffffff" stroke-width="0.73" paint-order="stroke" stroke-linejoin="round">pocket 7.40 sq, 0.60 deep (hidden)</text>
<text x="87.40" y="61.60" font-size="2.00" font-family="Helvetica, Arial, sans-serif" font-weight="normal" fill="#1a1a2e" text-anchor="middle" dy="0.35em" stroke="#ffffff" stroke-width="0.56" paint-order="stroke" stroke-linejoin="round">pry notch</text>
<rect x="1.50" y="1.50" width="207.00" height="249.00" rx="0.00" fill="none" stroke="#1a1a2e" stroke-width="0.50"/>
<rect x="130.50" y="225.50" width="78.00" height="25.00" rx="0.00" fill="none" stroke="#1a1a2e" stroke-width="0.50"/>
<line x1="130.50" y1="232.00" x2="208.50" y2="232.00" stroke="#1a1a2e" stroke-width="0.30" stroke-linecap="butt"/>
<line x1="130.50" y1="236.50" x2="208.50" y2="236.50" stroke="#1a1a2e" stroke-width="0.30" stroke-linecap="butt"/>
<line x1="130.50" y1="240.50" x2="208.50" y2="240.50" stroke="#1a1a2e" stroke-width="0.30" stroke-linecap="butt"/>
<text x="132.50" y="228.90" font-size="2.90" font-family="Helvetica, Arial, sans-serif" font-weight="bold" fill="#1a1a2e" text-anchor="start" dy="0.35em">ESP32-C3 radio adapter case - top half</text>
<text x="132.50" y="234.30" font-size="1.90" font-family="Helvetica, Arial, sans-serif" font-weight="normal" fill="#1a1a2e" text-anchor="start" dy="0.35em">Plan from below: skirt and rebate, grooves, bosses, window, antenna hole</text>
<text x="132.50" y="238.50" font-size="2.10" font-family="Helvetica, Arial, sans-serif" font-weight="normal" fill="#1a1a2e" text-anchor="start" dy="0.35em">Scale 2:1  |  Units mm  |  Sheet 2 of 6  |  scripts/draw_case.py</text>
<text x="132.50" y="242.90" font-size="1.80" font-family="Helvetica, Arial, sans-serif" font-weight="normal" fill="#1a1a2e" text-anchor="start" dy="0.35em">All dimensions from the model (scripts/case_dims.py); no draft angles modelled.</text>
<text x="132.50" y="245.50" font-size="1.80" font-family="Helvetica, Arial, sans-serif" font-weight="normal" fill="#1a1a2e" text-anchor="start" dy="0.35em">Tolerance: FDM print +/-0.2 unless noted; snap and peg features +/-0.05 as modelled.</text>
<text x="132.50" y="248.10" font-size="1.80" font-family="Helvetica, Arial, sans-serif" font-weight="normal" fill="#1a1a2e" text-anchor="start" dy="0.35em">Frame: x right, y down from the PCB's top-left corner, z up from the PCB's top face.</text>
<rect x="1.50" y="225.50" width="129.00" height="25.00" rx="0.00" fill="none" stroke="#1a1a2e" stroke-width="0.50"/>
<text x="3.50" y="228.90" font-size="2.30" font-family="Helvetica, Arial, sans-serif" font-weight="bold" fill="#1a1a2e" text-anchor="start" dy="0.35em">NOTES for an injection-moulded or machined version</text>
<text x="3.50" y="232.90" font-size="1.90" font-family="Helvetica, Arial, sans-serif" font-weight="normal" fill="#1a1a2e" text-anchor="start" dy="0.35em">1. No draft is modelled: add 1-2° on every face parallel to the pull (walls, standoffs, bosses, pegs).</text>
<text x="3.50" y="235.60" font-size="1.90" font-family="Helvetica, Arial, sans-serif" font-weight="normal" fill="#1a1a2e" text-anchor="start" dy="0.35em">2. Internal corners are sharp (only the vertical outside corners are R2): add R0.3-0.5 at wall/floor and boss roots.</text>
<text x="3.50" y="238.30" font-size="1.90" font-family="Helvetica, Arial, sans-serif" font-weight="normal" fill="#1a1a2e" text-anchor="start" dy="0.35em">3. Walls 2.2, plates 2.0 (antenna wall 2.5); the Ø4.0 standoffs and Ø4.4 bosses on 2 mm plates will sink: core or accept.</text>
<text x="3.50" y="241.00" font-size="1.90" font-family="Helvetica, Arial, sans-serif" font-weight="normal" fill="#1a1a2e" text-anchor="start" dy="0.35em">4. The tab bumps and skirt grooves are undercuts to a z pull: side actions or lifters, or accept a 0.2 mm bump-off.</text>
<text x="3.50" y="243.70" font-size="1.90" font-family="Helvetica, Arial, sans-serif" font-weight="normal" fill="#1a1a2e" text-anchor="start" dy="0.35em">5. The Ø2.15 pegs rely on FDM printing oversize to grip the Ø2.2 holes: size a true interference, or use inserts and screws.</text>
<text x="3.50" y="246.40" font-size="1.90" font-family="Helvetica, Arial, sans-serif" font-weight="normal" fill="#1a1a2e" text-anchor="start" dy="0.35em">6. Aluminium: 0.8 mm tabs cannot flex; use M2 screws through the bosses into tapped standoffs, and R1+ internal corners.</text>
</svg>
