<svg xmlns="http://www.w3.org/2000/svg" width="965" height="1020" viewBox="0 0 965 1020">
<rect width="100%" height="100%" fill="#ffffff"/>
<text x="482.4" y="33.0" font-size="22.0" font-family="Helvetica, Arial, sans-serif" font-weight="bold" fill="#1a1a2e" text-anchor="middle" dy="0.36em">ESP32-C3 SuperMini to the blue CC1101 E07-M1101D-SMA with jumper wires</text>
<text x="482.4" y="61.6" font-size="13.2" font-family="Helvetica, Arial, sans-serif" fill="#1a1a2e" text-anchor="middle" dy="0.36em">Same pins as the socket adapter. Both boards seen from the back, header pins towards you.</text>
<g transform="translate(504.9 513.9)"><text x="82.5" y="0.0" font-size="0.0" font-family="Helvetica, Arial, sans-serif" font-weight="bold" fill="#1a1a2e" text-anchor="middle"></text>
<rect x="0.0" y="0.0" width="165.0" height="330.0" rx="6.6" fill="#1c6b9c" stroke="#0d3f5e" stroke-width="2.75"/>
<text x="82.5" y="475.2" font-size="13.2" font-family="Helvetica, Arial, sans-serif" font-weight="normal" fill="#1a1a2e" text-anchor="middle" dy="0.36em">15 x 30 mm</text>
<rect x="31.9" y="8.8" width="17.6" height="17.6" rx="0.0" fill="#f2c94c" stroke="#1a1a2e" stroke-width="1.32"/>
<circle cx="40.7" cy="17.6" r="5.0" fill="#ffffff" stroke="#1a1a2e" stroke-width="0.88"/>
<text x="40.7" y="17.6" font-size="8.2" font-family="Helvetica, Arial, sans-serif" font-weight="bold" fill="#1a1a2e" text-anchor="middle" dy="0.36em">1</text>
<text x="40.7" y="1.1" font-size="11.6" font-family="Helvetica, Arial, sans-serif" font-weight="bold" fill="#1a1a2e" text-anchor="start" dy="0.36em" transform="rotate(-90 40.7 1.1)" stroke="#ffffff" stroke-width="3.8" paint-order="stroke" stroke-linejoin="round">GND</text>
<circle cx="40.7" cy="45.5" r="8.8" fill="#f2c94c" stroke="#1a1a2e" stroke-width="1.32"/>
<circle cx="40.7" cy="45.5" r="5.0" fill="#ffffff" stroke="#1a1a2e" stroke-width="0.88"/>
<text x="40.7" y="45.5" font-size="8.2" font-family="Helvetica, Arial, sans-serif" font-weight="bold" fill="#1a1a2e" text-anchor="middle" dy="0.36em">2</text>
<text x="40.7" y="62.0" font-size="11.6" font-family="Helvetica, Arial, sans-serif" font-weight="bold" fill="#1a1a2e" text-anchor="end" dy="0.36em" transform="rotate(-90 40.7 62.0)" stroke="#ffffff" stroke-width="3.8" paint-order="stroke" stroke-linejoin="round">VCC</text>
<circle cx="68.6" cy="17.6" r="8.8" fill="#f2c94c" stroke="#1a1a2e" stroke-width="1.32"/>
<circle cx="68.6" cy="17.6" r="5.0" fill="#ffffff" stroke="#1a1a2e" stroke-width="0.88"/>
<text x="68.6" y="17.6" font-size="8.2" font-family="Helvetica, Arial, sans-serif" font-weight="bold" fill="#1a1a2e" text-anchor="middle" dy="0.36em">3</text>
<text x="68.6" y="1.1" font-size="11.6" font-family="Helvetica, Arial, sans-serif" font-weight="bold" fill="#1a1a2e" text-anchor="start" dy="0.36em" transform="rotate(-90 68.6 1.1)" stroke="#ffffff" stroke-width="3.8" paint-order="stroke" stroke-linejoin="round">GDO0</text>
<circle cx="68.6" cy="45.5" r="8.8" fill="#f2c94c" stroke="#1a1a2e" stroke-width="1.32"/>
<circle cx="68.6" cy="45.5" r="5.0" fill="#ffffff" stroke="#1a1a2e" stroke-width="0.88"/>
<text x="68.6" y="45.5" font-size="8.2" font-family="Helvetica, Arial, sans-serif" font-weight="bold" fill="#1a1a2e" text-anchor="middle" dy="0.36em">4</text>
<text x="68.6" y="62.0" font-size="11.6" font-family="Helvetica, Arial, sans-serif" font-weight="bold" fill="#1a1a2e" text-anchor="end" dy="0.36em" transform="rotate(-90 68.6 62.0)" stroke="#ffffff" stroke-width="3.8" paint-order="stroke" stroke-linejoin="round">CSN</text>
<circle cx="96.6" cy="17.6" r="8.8" fill="#f2c94c" stroke="#1a1a2e" stroke-width="1.32"/>
<circle cx="96.6" cy="17.6" r="5.0" fill="#ffffff" stroke="#1a1a2e" stroke-width="0.88"/>
<text x="96.6" y="17.6" font-size="8.2" font-family="Helvetica, Arial, sans-serif" font-weight="bold" fill="#1a1a2e" text-anchor="middle" dy="0.36em">5</text>
<text x="96.6" y="1.1" font-size="11.6" font-family="Helvetica, Arial, sans-serif" font-weight="bold" fill="#1a1a2e" text-anchor="start" dy="0.36em" transform="rotate(-90 96.6 1.1)" stroke="#ffffff" stroke-width="3.8" paint-order="stroke" stroke-linejoin="round">SCK</text>
<circle cx="96.6" cy="45.5" r="8.8" fill="#f2c94c" stroke="#1a1a2e" stroke-width="1.32"/>
<circle cx="96.6" cy="45.5" r="5.0" fill="#ffffff" stroke="#1a1a2e" stroke-width="0.88"/>
<text x="96.6" y="45.5" font-size="8.2" font-family="Helvetica, Arial, sans-serif" font-weight="bold" fill="#1a1a2e" text-anchor="middle" dy="0.36em">6</text>
<text x="96.6" y="62.0" font-size="11.6" font-family="Helvetica, Arial, sans-serif" font-weight="bold" fill="#1a1a2e" text-anchor="end" dy="0.36em" transform="rotate(-90 96.6 62.0)" stroke="#ffffff" stroke-width="3.8" paint-order="stroke" stroke-linejoin="round">MOSI</text>
<circle cx="124.5" cy="17.6" r="8.8" fill="#f2c94c" stroke="#1a1a2e" stroke-width="1.32"/>
<circle cx="124.5" cy="17.6" r="5.0" fill="#ffffff" stroke="#1a1a2e" stroke-width="0.88"/>
<text x="124.5" y="17.6" font-size="8.2" font-family="Helvetica, Arial, sans-serif" font-weight="bold" fill="#1a1a2e" text-anchor="middle" dy="0.36em">7</text>
<text x="124.5" y="1.1" font-size="11.6" font-family="Helvetica, Arial, sans-serif" font-weight="bold" fill="#1a1a2e" text-anchor="start" dy="0.36em" transform="rotate(-90 124.5 1.1)" stroke="#ffffff" stroke-width="3.8" paint-order="stroke" stroke-linejoin="round">MISO</text>
<circle cx="124.5" cy="45.5" r="8.8" fill="#f2c94c" stroke="#1a1a2e" stroke-width="1.32"/>
<circle cx="124.5" cy="45.5" r="5.0" fill="#ffffff" stroke="#1a1a2e" stroke-width="0.88"/>
<text x="124.5" y="45.5" font-size="8.2" font-family="Helvetica, Arial, sans-serif" font-weight="bold" fill="#1a1a2e" text-anchor="middle" dy="0.36em">8</text>
<text x="124.5" y="62.0" font-size="11.6" font-family="Helvetica, Arial, sans-serif" font-weight="bold" fill="#1a1a2e" text-anchor="end" dy="0.36em" transform="rotate(-90 124.5 62.0)" stroke="#ffffff" stroke-width="3.8" paint-order="stroke" stroke-linejoin="round">GDO2</text>
<circle cx="135.3" cy="220.0" r="23.1" fill="#f2c94c" stroke="#1a1a2e" stroke-width="1.10"/>
<circle cx="135.3" cy="220.0" r="16.5" fill="#ffffff" stroke="#1a1a2e" stroke-width="0.88"/>
<circle cx="29.7" cy="220.0" r="23.1" fill="#f2c94c" stroke="#1a1a2e" stroke-width="1.10"/>
<circle cx="29.7" cy="220.0" r="16.5" fill="#ffffff" stroke="#1a1a2e" stroke-width="0.88"/>
<text x="47.3" y="96.8" font-size="8.8" font-family="Helvetica, Arial, sans-serif" font-weight="normal" fill="#ffffff" text-anchor="start" dy="0.36em">1 GND</text>
<text x="47.3" y="111.1" font-size="8.8" font-family="Helvetica, Arial, sans-serif" font-weight="normal" fill="#ffffff" text-anchor="start" dy="0.36em">2 VCC</text>
<text x="47.3" y="125.4" font-size="8.8" font-family="Helvetica, Arial, sans-serif" font-weight="normal" fill="#ffffff" text-anchor="start" dy="0.36em">3 GDO0</text>
<text x="47.3" y="139.7" font-size="8.8" font-family="Helvetica, Arial, sans-serif" font-weight="normal" fill="#ffffff" text-anchor="start" dy="0.36em">4 CSN</text>
<text x="47.3" y="154.0" font-size="8.8" font-family="Helvetica, Arial, sans-serif" font-weight="normal" fill="#ffffff" text-anchor="start" dy="0.36em">5 SCK</text>
<text x="47.3" y="168.3" font-size="8.8" font-family="Helvetica, Arial, sans-serif" font-weight="normal" fill="#ffffff" text-anchor="start" dy="0.36em">6 MOSI</text>
<text x="47.3" y="182.6" font-size="8.8" font-family="Helvetica, Arial, sans-serif" font-weight="normal" fill="#ffffff" text-anchor="start" dy="0.36em">7 MISO</text>
<text x="47.3" y="196.9" font-size="8.8" font-family="Helvetica, Arial, sans-serif" font-weight="normal" fill="#ffffff" text-anchor="start" dy="0.36em">8 GDO2</text>
<rect x="102.8" y="291.5" width="19.8" height="38.5" rx="0.0" fill="#c9c9c9" stroke="#1a1a2e" stroke-width="1.10"/>
<rect x="42.3" y="291.5" width="19.8" height="38.5" rx="0.0" fill="#c9c9c9" stroke="#1a1a2e" stroke-width="1.10"/>
<rect x="47.3" y="325.6" width="70.4" height="33.0" rx="2.2" fill="#b8b8b8" stroke="#1a1a2e" stroke-width="1.32"/>
<rect x="50.6" y="358.6" width="63.8" height="75.9" rx="0.0" fill="#dedede" stroke="#1a1a2e" stroke-width="1.32"/>
<line x1="114.4" y1="366.3" x2="50.6" y2="366.3" stroke="#1a1a2e" stroke-width="0.88"/>
<line x1="114.4" y1="374.0" x2="50.6" y2="374.0" stroke="#1a1a2e" stroke-width="0.88"/>
<line x1="114.4" y1="381.7" x2="50.6" y2="381.7" stroke="#1a1a2e" stroke-width="0.88"/>
<line x1="114.4" y1="389.4" x2="50.6" y2="389.4" stroke="#1a1a2e" stroke-width="0.88"/>
<line x1="114.4" y1="397.1" x2="50.6" y2="397.1" stroke="#1a1a2e" stroke-width="0.88"/>
<line x1="114.4" y1="404.8" x2="50.6" y2="404.8" stroke="#1a1a2e" stroke-width="0.88"/>
<line x1="114.4" y1="412.5" x2="50.6" y2="412.5" stroke="#1a1a2e" stroke-width="0.88"/>
<line x1="114.4" y1="420.2" x2="50.6" y2="420.2" stroke="#1a1a2e" stroke-width="0.88"/>
<line x1="114.4" y1="427.9" x2="50.6" y2="427.9" stroke="#1a1a2e" stroke-width="0.88"/>
<text x="82.5" y="454.3" font-size="12.1" font-family="Helvetica, Arial, sans-serif" font-weight="normal" fill="#1a1a2e" text-anchor="middle" dy="0.36em">SMA jack</text>
<text x="82.5" y="276.1" font-size="12.1" font-family="Helvetica, Arial, sans-serif" font-weight="normal" fill="#ffffff" text-anchor="middle" dy="0.36em">E07-M1101D V2.0</text>
</g>
<g transform="translate(165.0 137.5)"><text x="99.0" y="0.0" font-size="0.0" font-family="Helvetica, Arial, sans-serif" font-weight="bold" fill="#1a1a2e" text-anchor="middle"></text>
<rect x="50.6" y="-28.6" width="96.8" height="57.2" rx="12.1" fill="#b9bdc5" stroke="#1a1a2e" stroke-width="1.32"/>
<rect x="67.1" y="-20.9" width="63.8" height="49.5" rx="8.8" fill="#8b909a" stroke="none" stroke-width="0.00"/>
<rect x="0.0" y="0.0" width="198.0" height="247.7" rx="6.6" fill="#1f2430" stroke="#0b0d12" stroke-width="2.75"/>
<text x="132.0" y="-40.7" font-size="9.3" font-family="Helvetica, Arial, sans-serif" font-weight="normal" fill="#1a1a2e" text-anchor="middle" dy="0.36em">USB-C (far side)</text>
<text x="99.0" y="127.6" font-size="12.1" font-family="Helvetica, Arial, sans-serif" font-weight="bold" fill="#ffffff" text-anchor="middle" dy="0.36em">ESP32-C3</text>
<text x="99.0" y="147.4" font-size="12.1" font-family="Helvetica, Arial, sans-serif" font-weight="bold" fill="#ffffff" text-anchor="middle" dy="0.36em">SuperMini</text>
<text x="99.0" y="176.0" font-size="9.9" font-family="Helvetica, Arial, sans-serif" font-weight="normal" fill="#ffffff" text-anchor="middle" dy="0.36em">back</text>
<circle cx="182.8" cy="19.1" r="8.8" fill="#f2c94c" stroke="#1a1a2e" stroke-width="1.32"/>
<circle cx="182.8" cy="19.1" r="5.0" fill="#ffffff" stroke="#1a1a2e" stroke-width="0.88"/>
<text x="169.4" y="19.1" font-size="10.4" font-family="Helvetica, Arial, sans-serif" font-weight="bold" fill="#ffffff" text-anchor="end" dy="0.36em">5</text>
<circle cx="15.2" cy="19.1" r="8.8" fill="#f2c94c" stroke="#1a1a2e" stroke-width="1.32"/>
<circle cx="15.2" cy="19.1" r="5.0" fill="#ffffff" stroke="#1a1a2e" stroke-width="0.88"/>
<text x="28.6" y="19.1" font-size="10.4" font-family="Helvetica, Arial, sans-serif" font-weight="bold" fill="#ffffff" text-anchor="start" dy="0.36em">5V</text>
<circle cx="182.8" cy="47.1" r="8.8" fill="#f2c94c" stroke="#1a1a2e" stroke-width="1.32"/>
<circle cx="182.8" cy="47.1" r="5.0" fill="#ffffff" stroke="#1a1a2e" stroke-width="0.88"/>
<text x="169.4" y="47.1" font-size="10.4" font-family="Helvetica, Arial, sans-serif" font-weight="bold" fill="#ffffff" text-anchor="end" dy="0.36em">6</text>
<circle cx="15.2" cy="47.1" r="8.8" fill="#f2c94c" stroke="#1a1a2e" stroke-width="1.32"/>
<circle cx="15.2" cy="47.1" r="5.0" fill="#ffffff" stroke="#1a1a2e" stroke-width="0.88"/>
<text x="28.6" y="47.1" font-size="10.4" font-family="Helvetica, Arial, sans-serif" font-weight="bold" fill="#ffffff" text-anchor="start" dy="0.36em">G</text>
<circle cx="182.8" cy="75.0" r="8.8" fill="#f2c94c" stroke="#1a1a2e" stroke-width="1.32"/>
<circle cx="182.8" cy="75.0" r="5.0" fill="#ffffff" stroke="#1a1a2e" stroke-width="0.88"/>
<text x="169.4" y="75.0" font-size="10.4" font-family="Helvetica, Arial, sans-serif" font-weight="bold" fill="#ffffff" text-anchor="end" dy="0.36em">7</text>
<circle cx="15.2" cy="75.0" r="8.8" fill="#f2c94c" stroke="#1a1a2e" stroke-width="1.32"/>
<circle cx="15.2" cy="75.0" r="5.0" fill="#ffffff" stroke="#1a1a2e" stroke-width="0.88"/>
<text x="28.6" y="75.0" font-size="10.4" font-family="Helvetica, Arial, sans-serif" font-weight="bold" fill="#ffffff" text-anchor="start" dy="0.36em">3V3</text>
<circle cx="182.8" cy="103.0" r="8.8" fill="#f2c94c" stroke="#1a1a2e" stroke-width="1.32"/>
<circle cx="182.8" cy="103.0" r="5.0" fill="#ffffff" stroke="#1a1a2e" stroke-width="0.88"/>
<text x="169.4" y="103.0" font-size="10.4" font-family="Helvetica, Arial, sans-serif" font-weight="bold" fill="#ffffff" text-anchor="end" dy="0.36em">8</text>
<circle cx="15.2" cy="103.0" r="8.8" fill="#f2c94c" stroke="#1a1a2e" stroke-width="1.32"/>
<circle cx="15.2" cy="103.0" r="5.0" fill="#ffffff" stroke="#1a1a2e" stroke-width="0.88"/>
<text x="28.6" y="103.0" font-size="10.4" font-family="Helvetica, Arial, sans-serif" font-weight="bold" fill="#ffffff" text-anchor="start" dy="0.36em">4</text>
<circle cx="182.8" cy="130.9" r="8.8" fill="#f2c94c" stroke="#1a1a2e" stroke-width="1.32"/>
<circle cx="182.8" cy="130.9" r="5.0" fill="#ffffff" stroke="#1a1a2e" stroke-width="0.88"/>
<text x="169.4" y="130.9" font-size="10.4" font-family="Helvetica, Arial, sans-serif" font-weight="bold" fill="#ffffff" text-anchor="end" dy="0.36em">9</text>
<circle cx="15.2" cy="130.9" r="8.8" fill="#f2c94c" stroke="#1a1a2e" stroke-width="1.32"/>
<circle cx="15.2" cy="130.9" r="5.0" fill="#ffffff" stroke="#1a1a2e" stroke-width="0.88"/>
<text x="28.6" y="130.9" font-size="10.4" font-family="Helvetica, Arial, sans-serif" font-weight="bold" fill="#ffffff" text-anchor="start" dy="0.36em">3</text>
<circle cx="182.8" cy="158.8" r="8.8" fill="#f2c94c" stroke="#1a1a2e" stroke-width="1.32"/>
<circle cx="182.8" cy="158.8" r="5.0" fill="#ffffff" stroke="#1a1a2e" stroke-width="0.88"/>
<text x="169.4" y="158.8" font-size="10.4" font-family="Helvetica, Arial, sans-serif" font-weight="bold" fill="#ffffff" text-anchor="end" dy="0.36em">10</text>
<circle cx="15.2" cy="158.8" r="8.8" fill="#f2c94c" stroke="#1a1a2e" stroke-width="1.32"/>
<circle cx="15.2" cy="158.8" r="5.0" fill="#ffffff" stroke="#1a1a2e" stroke-width="0.88"/>
<text x="28.6" y="158.8" font-size="10.4" font-family="Helvetica, Arial, sans-serif" font-weight="bold" fill="#ffffff" text-anchor="start" dy="0.36em">2</text>
<circle cx="182.8" cy="186.8" r="8.8" fill="#f2c94c" stroke="#1a1a2e" stroke-width="1.32"/>
<circle cx="182.8" cy="186.8" r="5.0" fill="#ffffff" stroke="#1a1a2e" stroke-width="0.88"/>
<text x="169.4" y="186.8" font-size="10.4" font-family="Helvetica, Arial, sans-serif" font-weight="bold" fill="#ffffff" text-anchor="end" dy="0.36em">20</text>
<circle cx="15.2" cy="186.8" r="8.8" fill="#f2c94c" stroke="#1a1a2e" stroke-width="1.32"/>
<circle cx="15.2" cy="186.8" r="5.0" fill="#ffffff" stroke="#1a1a2e" stroke-width="0.88"/>
<text x="28.6" y="186.8" font-size="10.4" font-family="Helvetica, Arial, sans-serif" font-weight="bold" fill="#ffffff" text-anchor="start" dy="0.36em">1</text>
<circle cx="182.8" cy="214.7" r="8.8" fill="#f2c94c" stroke="#1a1a2e" stroke-width="1.32"/>
<circle cx="182.8" cy="214.7" r="5.0" fill="#ffffff" stroke="#1a1a2e" stroke-width="0.88"/>
<text x="169.4" y="214.7" font-size="10.4" font-family="Helvetica, Arial, sans-serif" font-weight="bold" fill="#ffffff" text-anchor="end" dy="0.36em">21</text>
<circle cx="15.2" cy="214.7" r="8.8" fill="#f2c94c" stroke="#1a1a2e" stroke-width="1.32"/>
<circle cx="15.2" cy="214.7" r="5.0" fill="#ffffff" stroke="#1a1a2e" stroke-width="0.88"/>
<text x="28.6" y="214.7" font-size="10.4" font-family="Helvetica, Arial, sans-serif" font-weight="bold" fill="#ffffff" text-anchor="start" dy="0.36em">0</text>
</g>
<path d="M 347.8 184.6 L 432.3 184.6 Q 449.9 184.6 449.9 202.2 L 449.9 389.6 Q 449.9 407.2 467.5 407.2 L 625.8 407.2 Q 643.4 407.2 643.4 424.8 L 643.4 552.5 Q 643.4 559.5 636.4 559.5 L 629.4 559.5" fill="none" stroke="#1a1a2e" stroke-width="14.3" stroke-linecap="round"/>
<path d="M 347.8 184.6 L 432.3 184.6 Q 449.9 184.6 449.9 202.2 L 449.9 389.6 Q 449.9 407.2 467.5 407.2 L 625.8 407.2 Q 643.4 407.2 643.4 424.8 L 643.4 552.5 Q 643.4 559.5 636.4 559.5 L 629.4 559.5" fill="none" stroke="#f2d21e" stroke-width="9.3" stroke-linecap="round"/>
<circle cx="347.8" cy="184.6" r="8.8" fill="#f2d21e" stroke="#1a1a2e" stroke-width="1.6"/>
<circle cx="629.4" cy="559.5" r="8.8" fill="#f2d21e" stroke="#1a1a2e" stroke-width="1.6"/>
<path d="M 347.8 212.5 L 408.1 212.5 Q 425.7 212.5 425.7 230.1 L 425.7 413.8 Q 425.7 431.4 443.3 431.4 L 611.8 431.4 Q 629.4 431.4 629.4 449.0 L 629.4 531.5" fill="none" stroke="#1a1a2e" stroke-width="14.3" stroke-linecap="round"/>
<path d="M 347.8 212.5 L 408.1 212.5 Q 425.7 212.5 425.7 230.1 L 425.7 413.8 Q 425.7 431.4 443.3 431.4 L 611.8 431.4 Q 629.4 431.4 629.4 449.0 L 629.4 531.5" fill="none" stroke="#2e9e4f" stroke-width="9.3" stroke-linecap="round"/>
<circle cx="347.8" cy="212.5" r="8.8" fill="#2e9e4f" stroke="#1a1a2e" stroke-width="1.6"/>
<circle cx="629.4" cy="531.5" r="8.8" fill="#2e9e4f" stroke="#1a1a2e" stroke-width="1.6"/>
<path d="M 347.8 296.3 L 383.9 296.3 Q 401.5 296.3 401.5 313.9 L 401.5 438.0 Q 401.5 455.6 419.1 455.6 L 555.9 455.6 Q 573.5 455.6 573.5 473.2 L 573.5 531.5" fill="none" stroke="#1a1a2e" stroke-width="14.3" stroke-linecap="round"/>
<path d="M 347.8 296.3 L 383.9 296.3 Q 401.5 296.3 401.5 313.9 L 401.5 438.0 Q 401.5 455.6 419.1 455.6 L 555.9 455.6 Q 573.5 455.6 573.5 473.2 L 573.5 531.5" fill="none" stroke="#8c8c8c" stroke-width="9.3" stroke-linecap="round"/>
<circle cx="347.8" cy="296.3" r="8.8" fill="#8c8c8c" stroke="#1a1a2e" stroke-width="1.6"/>
<circle cx="573.5" cy="531.5" r="8.8" fill="#8c8c8c" stroke="#1a1a2e" stroke-width="1.6"/>
<path d="M 180.2 268.4 L 130.9 268.4 Q 113.3 268.4 113.3 286.0 L 113.3 462.2 Q 113.3 479.8 130.9 479.8 L 583.9 479.8 Q 601.5 479.8 601.5 497.4 L 601.5 531.5" fill="none" stroke="#1a1a2e" stroke-width="14.3" stroke-linecap="round"/>
<path d="M 180.2 268.4 L 130.9 268.4 Q 113.3 268.4 113.3 286.0 L 113.3 462.2 Q 113.3 479.8 130.9 479.8 L 583.9 479.8 Q 601.5 479.8 601.5 497.4 L 601.5 531.5" fill="none" stroke="#2464c8" stroke-width="9.3" stroke-linecap="round"/>
<circle cx="180.2" cy="268.4" r="8.8" fill="#2464c8" stroke="#1a1a2e" stroke-width="1.6"/>
<circle cx="601.5" cy="531.5" r="8.8" fill="#2464c8" stroke="#1a1a2e" stroke-width="1.6"/>
<path d="M 180.2 324.3 L 155.1 324.3 Q 137.5 324.3 137.5 341.9 L 137.5 486.4 Q 137.5 504.0 155.1 504.0 L 569.9 504.0 Q 587.5 504.0 587.5 521.6 L 587.5 552.5 Q 587.5 559.5 580.5 559.5 L 573.5 559.5" fill="none" stroke="#1a1a2e" stroke-width="14.3" stroke-linecap="round"/>
<path d="M 180.2 324.3 L 155.1 324.3 Q 137.5 324.3 137.5 341.9 L 137.5 486.4 Q 137.5 504.0 155.1 504.0 L 569.9 504.0 Q 587.5 504.0 587.5 521.6 L 587.5 552.5 Q 587.5 559.5 580.5 559.5 L 573.5 559.5" fill="none" stroke="#7d3fa8" stroke-width="9.3" stroke-linecap="round"/>
<circle cx="180.2" cy="324.3" r="8.8" fill="#7d3fa8" stroke="#1a1a2e" stroke-width="1.6"/>
<circle cx="573.5" cy="559.5" r="8.8" fill="#7d3fa8" stroke="#1a1a2e" stroke-width="1.6"/>
<path d="M 180.2 184.6 L 58.3 184.6 Q 40.7 184.6 40.7 202.2 L 40.7 513.9 Q 40.7 531.5 58.3 531.5 L 545.6 531.5" fill="none" stroke="#1a1a2e" stroke-width="14.3" stroke-linecap="round"/>
<path d="M 180.2 184.6 L 58.3 184.6 Q 40.7 184.6 40.7 202.2 L 40.7 513.9 Q 40.7 531.5 58.3 531.5 L 545.6 531.5" fill="none" stroke="#7b4a1e" stroke-width="9.3" stroke-linecap="round"/>
<circle cx="180.2" cy="184.6" r="8.8" fill="#7b4a1e" stroke="#1a1a2e" stroke-width="1.6"/>
<circle cx="545.6" cy="531.5" r="8.8" fill="#7b4a1e" stroke="#1a1a2e" stroke-width="1.6"/>
<path d="M 180.2 212.5 L 82.5 212.5 Q 64.9 212.5 64.9 230.1 L 64.9 541.9 Q 64.9 559.5 82.5 559.5 L 545.6 559.5" fill="none" stroke="#1a1a2e" stroke-width="14.3" stroke-linecap="round"/>
<path d="M 180.2 212.5 L 82.5 212.5 Q 64.9 212.5 64.9 230.1 L 64.9 541.9 Q 64.9 559.5 82.5 559.5 L 545.6 559.5" fill="none" stroke="#d81e1e" stroke-width="9.3" stroke-linecap="round"/>
<circle cx="180.2" cy="212.5" r="8.8" fill="#d81e1e" stroke="#1a1a2e" stroke-width="1.6"/>
<circle cx="545.6" cy="559.5" r="8.8" fill="#d81e1e" stroke="#1a1a2e" stroke-width="1.6"/>
<path d="M 180.2 240.5 L 106.7 240.5 Q 89.1 240.5 89.1 258.1 L 89.1 574.9 Q 89.1 592.5 106.7 592.5 L 585.0 592.5 Q 601.5 592.5 601.5 576.0 L 601.5 559.5" fill="none" stroke="#1a1a2e" stroke-width="14.3" stroke-linecap="round"/>
<path d="M 180.2 240.5 L 106.7 240.5 Q 89.1 240.5 89.1 258.1 L 89.1 574.9 Q 89.1 592.5 106.7 592.5 L 585.0 592.5 Q 601.5 592.5 601.5 576.0 L 601.5 559.5" fill="none" stroke="#f4f4f4" stroke-width="9.3" stroke-linecap="round"/>
<circle cx="180.2" cy="240.5" r="8.8" fill="#f4f4f4" stroke="#1a1a2e" stroke-width="1.6"/>
<circle cx="601.5" cy="559.5" r="8.8" fill="#f4f4f4" stroke="#1a1a2e" stroke-width="1.6"/>
<path d="M 347.8 156.6 L 383.9 156.6 Q 401.5 156.6 401.5 139.0 L 401.5 118.1" fill="none" stroke="#1a1a2e" stroke-width="14.3" stroke-linecap="round"/>
<path d="M 347.8 156.6 L 383.9 156.6 Q 401.5 156.6 401.5 139.0 L 401.5 118.1" fill="none" stroke="#f28c1e" stroke-width="9.3" stroke-linecap="round"/>
<circle cx="347.8" cy="156.6" r="8.8" fill="#f28c1e" stroke="#1a1a2e" stroke-width="1.6"/>
<circle cx="401.5" cy="118.1" r="8.8" fill="#f28c1e" stroke="#1a1a2e" stroke-width="1.6"/>
<text x="414.7" y="101.6" font-size="10.4" font-family="Helvetica, Arial, sans-serif" fill="#1a1a2e" text-anchor="middle" dy="0.36em">GPIO5: leave open</text>
<g transform="translate(504.9 513.9)"><text x="82.5" y="0.0" font-size="0.0" font-family="Helvetica, Arial, sans-serif" font-weight="bold" fill="#1a1a2e" text-anchor="middle"></text>
<circle cx="40.7" cy="17.6" r="8.8" fill="#f2c94c" stroke="#1a1a2e" stroke-width="1.32"/>
<circle cx="40.7" cy="17.6" r="5.0" fill="#ffffff" stroke="#1a1a2e" stroke-width="0.88"/>
<text x="40.7" y="1.1" font-size="11.6" font-family="Helvetica, Arial, sans-serif" font-weight="bold" fill="#1a1a2e" text-anchor="start" dy="0.36em" transform="rotate(-90 40.7 1.1)" stroke="#ffffff" stroke-width="3.8" paint-order="stroke" stroke-linejoin="round">GND</text>
<circle cx="40.7" cy="45.5" r="8.8" fill="#f2c94c" stroke="#1a1a2e" stroke-width="1.32"/>
<circle cx="40.7" cy="45.5" r="5.0" fill="#ffffff" stroke="#1a1a2e" stroke-width="0.88"/>
<text x="40.7" y="62.0" font-size="11.6" font-family="Helvetica, Arial, sans-serif" font-weight="bold" fill="#1a1a2e" text-anchor="end" dy="0.36em" transform="rotate(-90 40.7 62.0)" stroke="#ffffff" stroke-width="3.8" paint-order="stroke" stroke-linejoin="round">VCC</text>
<circle cx="68.6" cy="17.6" r="8.8" fill="#f2c94c" stroke="#1a1a2e" stroke-width="1.32"/>
<circle cx="68.6" cy="17.6" r="5.0" fill="#ffffff" stroke="#1a1a2e" stroke-width="0.88"/>
<text x="68.6" y="1.1" font-size="11.6" font-family="Helvetica, Arial, sans-serif" font-weight="bold" fill="#1a1a2e" text-anchor="start" dy="0.36em" transform="rotate(-90 68.6 1.1)" stroke="#ffffff" stroke-width="3.8" paint-order="stroke" stroke-linejoin="round">GDO0</text>
<circle cx="68.6" cy="45.5" r="8.8" fill="#f2c94c" stroke="#1a1a2e" stroke-width="1.32"/>
<circle cx="68.6" cy="45.5" r="5.0" fill="#ffffff" stroke="#1a1a2e" stroke-width="0.88"/>
<text x="68.6" y="62.0" font-size="11.6" font-family="Helvetica, Arial, sans-serif" font-weight="bold" fill="#1a1a2e" text-anchor="end" dy="0.36em" transform="rotate(-90 68.6 62.0)" stroke="#ffffff" stroke-width="3.8" paint-order="stroke" stroke-linejoin="round">CSN</text>
<circle cx="96.6" cy="17.6" r="8.8" fill="#f2c94c" stroke="#1a1a2e" stroke-width="1.32"/>
<circle cx="96.6" cy="17.6" r="5.0" fill="#ffffff" stroke="#1a1a2e" stroke-width="0.88"/>
<text x="96.6" y="1.1" font-size="11.6" font-family="Helvetica, Arial, sans-serif" font-weight="bold" fill="#1a1a2e" text-anchor="start" dy="0.36em" transform="rotate(-90 96.6 1.1)" stroke="#ffffff" stroke-width="3.8" paint-order="stroke" stroke-linejoin="round">SCK</text>
<circle cx="96.6" cy="45.5" r="8.8" fill="#f2c94c" stroke="#1a1a2e" stroke-width="1.32"/>
<circle cx="96.6" cy="45.5" r="5.0" fill="#ffffff" stroke="#1a1a2e" stroke-width="0.88"/>
<text x="96.6" y="62.0" font-size="11.6" font-family="Helvetica, Arial, sans-serif" font-weight="bold" fill="#1a1a2e" text-anchor="end" dy="0.36em" transform="rotate(-90 96.6 62.0)" stroke="#ffffff" stroke-width="3.8" paint-order="stroke" stroke-linejoin="round">MOSI</text>
<circle cx="124.5" cy="17.6" r="8.8" fill="#f2c94c" stroke="#1a1a2e" stroke-width="1.32"/>
<circle cx="124.5" cy="17.6" r="5.0" fill="#ffffff" stroke="#1a1a2e" stroke-width="0.88"/>
<text x="124.5" y="1.1" font-size="11.6" font-family="Helvetica, Arial, sans-serif" font-weight="bold" fill="#1a1a2e" text-anchor="start" dy="0.36em" transform="rotate(-90 124.5 1.1)" stroke="#ffffff" stroke-width="3.8" paint-order="stroke" stroke-linejoin="round">MISO</text>
<circle cx="124.5" cy="45.5" r="8.8" fill="#f2c94c" stroke="#1a1a2e" stroke-width="1.32"/>
<circle cx="124.5" cy="45.5" r="5.0" fill="#ffffff" stroke="#1a1a2e" stroke-width="0.88"/>
<text x="124.5" y="62.0" font-size="11.6" font-family="Helvetica, Arial, sans-serif" font-weight="bold" fill="#1a1a2e" text-anchor="end" dy="0.36em" transform="rotate(-90 124.5 62.0)" stroke="#ffffff" stroke-width="3.8" paint-order="stroke" stroke-linejoin="round">GDO2</text>
</g>
<g transform="translate(165.0 137.5)"><text x="99.0" y="0.0" font-size="0.0" font-family="Helvetica, Arial, sans-serif" font-weight="bold" fill="#1a1a2e" text-anchor="middle"></text>
<text x="169.4" y="19.1" font-size="10.4" font-family="Helvetica, Arial, sans-serif" font-weight="bold" fill="#1a1a2e" text-anchor="end" dy="0.36em" stroke="#ffffff" stroke-width="3.8" paint-order="stroke" stroke-linejoin="round">5</text>
<text x="28.6" y="19.1" font-size="10.4" font-family="Helvetica, Arial, sans-serif" font-weight="bold" fill="#1a1a2e" text-anchor="start" dy="0.36em" stroke="#ffffff" stroke-width="3.8" paint-order="stroke" stroke-linejoin="round">5V</text>
<text x="169.4" y="47.1" font-size="10.4" font-family="Helvetica, Arial, sans-serif" font-weight="bold" fill="#1a1a2e" text-anchor="end" dy="0.36em" stroke="#ffffff" stroke-width="3.8" paint-order="stroke" stroke-linejoin="round">6</text>
<text x="28.6" y="47.1" font-size="10.4" font-family="Helvetica, Arial, sans-serif" font-weight="bold" fill="#1a1a2e" text-anchor="start" dy="0.36em" stroke="#ffffff" stroke-width="3.8" paint-order="stroke" stroke-linejoin="round">G</text>
<text x="169.4" y="75.0" font-size="10.4" font-family="Helvetica, Arial, sans-serif" font-weight="bold" fill="#1a1a2e" text-anchor="end" dy="0.36em" stroke="#ffffff" stroke-width="3.8" paint-order="stroke" stroke-linejoin="round">7</text>
<text x="28.6" y="75.0" font-size="10.4" font-family="Helvetica, Arial, sans-serif" font-weight="bold" fill="#1a1a2e" text-anchor="start" dy="0.36em" stroke="#ffffff" stroke-width="3.8" paint-order="stroke" stroke-linejoin="round">3V3</text>
<text x="169.4" y="103.0" font-size="10.4" font-family="Helvetica, Arial, sans-serif" font-weight="bold" fill="#1a1a2e" text-anchor="end" dy="0.36em" stroke="#ffffff" stroke-width="3.8" paint-order="stroke" stroke-linejoin="round">8</text>
<text x="28.6" y="103.0" font-size="10.4" font-family="Helvetica, Arial, sans-serif" font-weight="bold" fill="#1a1a2e" text-anchor="start" dy="0.36em" stroke="#ffffff" stroke-width="3.8" paint-order="stroke" stroke-linejoin="round">4</text>
<text x="169.4" y="130.9" font-size="10.4" font-family="Helvetica, Arial, sans-serif" font-weight="bold" fill="#1a1a2e" text-anchor="end" dy="0.36em" stroke="#ffffff" stroke-width="3.8" paint-order="stroke" stroke-linejoin="round">9</text>
<text x="28.6" y="130.9" font-size="10.4" font-family="Helvetica, Arial, sans-serif" font-weight="bold" fill="#1a1a2e" text-anchor="start" dy="0.36em" stroke="#ffffff" stroke-width="3.8" paint-order="stroke" stroke-linejoin="round">3</text>
<text x="169.4" y="158.8" font-size="10.4" font-family="Helvetica, Arial, sans-serif" font-weight="bold" fill="#1a1a2e" text-anchor="end" dy="0.36em" stroke="#ffffff" stroke-width="3.8" paint-order="stroke" stroke-linejoin="round">10</text>
<text x="28.6" y="158.8" font-size="10.4" font-family="Helvetica, Arial, sans-serif" font-weight="bold" fill="#1a1a2e" text-anchor="start" dy="0.36em" stroke="#ffffff" stroke-width="3.8" paint-order="stroke" stroke-linejoin="round">2</text>
<text x="169.4" y="186.8" font-size="10.4" font-family="Helvetica, Arial, sans-serif" font-weight="bold" fill="#1a1a2e" text-anchor="end" dy="0.36em" stroke="#ffffff" stroke-width="3.8" paint-order="stroke" stroke-linejoin="round">20</text>
<text x="28.6" y="186.8" font-size="10.4" font-family="Helvetica, Arial, sans-serif" font-weight="bold" fill="#1a1a2e" text-anchor="start" dy="0.36em" stroke="#ffffff" stroke-width="3.8" paint-order="stroke" stroke-linejoin="round">1</text>
<text x="169.4" y="214.7" font-size="10.4" font-family="Helvetica, Arial, sans-serif" font-weight="bold" fill="#1a1a2e" text-anchor="end" dy="0.36em" stroke="#ffffff" stroke-width="3.8" paint-order="stroke" stroke-linejoin="round">21</text>
<text x="28.6" y="214.7" font-size="10.4" font-family="Helvetica, Arial, sans-serif" font-weight="bold" fill="#1a1a2e" text-anchor="start" dy="0.36em" stroke="#ffffff" stroke-width="3.8" paint-order="stroke" stroke-linejoin="round">0</text>
</g>
<text x="719.4" y="99.0" font-size="12.1" font-family="Helvetica, Arial, sans-serif" font-weight="bold" fill="#1a1a2e" dy="0.36em">Wires</text>
<rect x="719.4" y="121.5" width="39.6" height="12.1" fill="#7b4a1e" stroke="#1a1a2e" stroke-width="1.1" rx="5.0"/>
<text x="770.0" y="127.6" font-size="11.0" font-family="Helvetica, Arial, sans-serif" fill="#1a1a2e" dy="0.36em"><tspan font-weight="bold">brown</tspan>  G → GND</text>
<text x="770.0" y="144.1" font-size="9.3" font-family="Helvetica, Arial, sans-serif" fill="#555c66" dy="0.36em">ground</text>
<rect x="719.4" y="169.9" width="39.6" height="12.1" fill="#d81e1e" stroke="#1a1a2e" stroke-width="1.1" rx="5.0"/>
<text x="770.0" y="176.0" font-size="11.0" font-family="Helvetica, Arial, sans-serif" fill="#1a1a2e" dy="0.36em"><tspan font-weight="bold">red</tspan>  3V3 → VCC</text>
<text x="770.0" y="192.5" font-size="9.3" font-family="Helvetica, Arial, sans-serif" fill="#555c66" dy="0.36em">3.3 V</text>
<rect x="719.4" y="218.3" width="39.6" height="12.1" fill="#8c8c8c" stroke="#1a1a2e" stroke-width="1.1" rx="5.0"/>
<text x="770.0" y="224.4" font-size="11.0" font-family="Helvetica, Arial, sans-serif" fill="#1a1a2e" dy="0.36em"><tspan font-weight="bold">grey</tspan>  10 (GPIO10) → GDO0</text>
<text x="770.0" y="240.9" font-size="9.3" font-family="Helvetica, Arial, sans-serif" fill="#555c66" dy="0.36em">IRQ / packet (GDO0)</text>
<rect x="719.4" y="266.8" width="39.6" height="12.1" fill="#7d3fa8" stroke="#1a1a2e" stroke-width="1.1" rx="5.0"/>
<text x="770.0" y="272.8" font-size="11.0" font-family="Helvetica, Arial, sans-serif" fill="#1a1a2e" dy="0.36em"><tspan font-weight="bold">purple</tspan>  1 (GPIO1) → CSN</text>
<text x="770.0" y="289.3" font-size="9.3" font-family="Helvetica, Arial, sans-serif" fill="#555c66" dy="0.36em">SPI chip select</text>
<rect x="719.4" y="315.2" width="39.6" height="12.1" fill="#2464c8" stroke="#1a1a2e" stroke-width="1.1" rx="5.0"/>
<text x="770.0" y="321.2" font-size="11.0" font-family="Helvetica, Arial, sans-serif" fill="#1a1a2e" dy="0.36em"><tspan font-weight="bold">blue</tspan>  3 (GPIO3) → SCK</text>
<text x="770.0" y="337.7" font-size="9.3" font-family="Helvetica, Arial, sans-serif" fill="#555c66" dy="0.36em">SPI clock</text>
<rect x="719.4" y="363.6" width="39.6" height="12.1" fill="#f4f4f4" stroke="#1a1a2e" stroke-width="1.1" rx="5.0"/>
<text x="770.0" y="369.6" font-size="11.0" font-family="Helvetica, Arial, sans-serif" fill="#1a1a2e" dy="0.36em"><tspan font-weight="bold">white</tspan>  4 (GPIO4) → MOSI</text>
<text x="770.0" y="386.1" font-size="9.3" font-family="Helvetica, Arial, sans-serif" fill="#555c66" dy="0.36em">SPI MOSI</text>
<rect x="719.4" y="412.0" width="39.6" height="12.1" fill="#2e9e4f" stroke="#1a1a2e" stroke-width="1.1" rx="5.0"/>
<text x="770.0" y="418.0" font-size="11.0" font-family="Helvetica, Arial, sans-serif" fill="#1a1a2e" dy="0.36em"><tspan font-weight="bold">green</tspan>  7 (GPIO7) → MISO</text>
<text x="770.0" y="434.5" font-size="9.3" font-family="Helvetica, Arial, sans-serif" fill="#555c66" dy="0.36em">SPI MISO</text>
<rect x="719.4" y="460.4" width="39.6" height="12.1" fill="#f2d21e" stroke="#1a1a2e" stroke-width="1.1" rx="5.0"/>
<text x="770.0" y="466.4" font-size="11.0" font-family="Helvetica, Arial, sans-serif" fill="#1a1a2e" dy="0.36em"><tspan font-weight="bold">yellow</tspan>  6 (GPIO6) → GDO2</text>
<text x="770.0" y="482.9" font-size="9.3" font-family="Helvetica, Arial, sans-serif" fill="#555c66" dy="0.36em">second IRQ (GDO2)</text>
<rect x="719.4" y="508.8" width="39.6" height="12.1" fill="#f28c1e" stroke="#1a1a2e" stroke-width="1.1" rx="5.0"/>
<text x="770.0" y="514.8" font-size="11.0" font-family="Helvetica, Arial, sans-serif" fill="#1a1a2e" dy="0.36em"><tspan font-weight="bold">orange</tspan>  5 (GPIO5) → (none)</text>
<text x="770.0" y="531.3" font-size="9.3" font-family="Helvetica, Arial, sans-serif" fill="#555c66" dy="0.36em">radio-type strap, left open</text>
</svg>
